<svg xmlns="http://www.w3.org/2000/svg" viewBox="0 0 1200 750" width="1200" height="750" role="img" aria-label="Networks and a data stream flowing through intertwined forms">
  <defs>
    <linearGradient id="ground" x1="0" y1="0" x2="0" y2="1">
      <stop offset="0" stop-color="#fdfaf3"/><stop offset="1" stop-color="#f3ece0"/>
    </linearGradient>
    <radialGradient id="ball" cx=".34" cy=".3" r=".78">
      <stop offset="0" stop-color="#5b8ab8"/><stop offset=".55" stop-color="#1a4166"/><stop offset="1" stop-color="#022851"/>
    </radialGradient>
    <radialGradient id="goldball" cx=".34" cy=".3" r=".78">
      <stop offset="0" stop-color="#ffe9a3"/><stop offset=".55" stop-color="#ffbf00"/><stop offset="1" stop-color="#b98600"/>
    </radialGradient>
    <linearGradient id="rod" gradientUnits="userSpaceOnUse" x1="0" y1="0" x2="0" y2="750">
      <stop offset="0" stop-color="#ffd75e"/><stop offset=".5" stop-color="#e5a800"/><stop offset="1" stop-color="#c08f00"/>
    </linearGradient>
    <linearGradient id="glass" x1="0" y1="0" x2="1" y2="1">
      <stop offset="0" stop-color="#8fb4d4" stop-opacity=".55"/><stop offset="1" stop-color="#1a4166" stop-opacity=".65"/>
    </linearGradient>
  </defs>
  <rect width="1200" height="750" fill="url(#ground)"/>
  <line x1="96" y1="158" x2="196" y2="94" stroke="#1a4166" stroke-width="1.8" opacity=".32"/>
  <line x1="96" y1="158" x2="168" y2="240" stroke="#1a4166" stroke-width="1.8" opacity=".32"/>
  <line x1="96" y1="158" x2="78" y2="270" stroke="#1a4166" stroke-width="1.8" opacity=".32"/>
  <line x1="196" y1="94" x2="286" y2="180" stroke="#1a4166" stroke-width="1.8" opacity=".32"/>
  <line x1="196" y1="94" x2="168" y2="240" stroke="#1a4166" stroke-width="1.8" opacity=".32"/>
  <line x1="286" y1="180" x2="168" y2="240" stroke="#1a4166" stroke-width="1.8" opacity=".32"/>
  <line x1="286" y1="180" x2="272" y2="296" stroke="#1a4166" stroke-width="1.8" opacity=".32"/>
  <line x1="168" y1="240" x2="78" y2="270" stroke="#1a4166" stroke-width="1.8" opacity=".32"/>
  <line x1="168" y1="240" x2="272" y2="296" stroke="#1a4166" stroke-width="1.8" opacity=".32"/>
  <circle cx="96.0" cy="158.0" r="9.0" fill="url(#ball)"/><circle cx="93.3" cy="154.9" r="2.0" fill="#fff" opacity=".45"/>
  <circle cx="196.0" cy="94.0" r="12.0" fill="url(#ball)"/><circle cx="192.4" cy="89.9" r="2.6" fill="#fff" opacity=".45"/>
  <circle cx="286.0" cy="180.0" r="9.0" fill="url(#goldball)"/><circle cx="283.3" cy="176.9" r="2.0" fill="#fff" opacity=".45"/>
  <circle cx="168.0" cy="240.0" r="12.0" fill="url(#ball)"/><circle cx="164.4" cy="235.9" r="2.6" fill="#fff" opacity=".45"/>
  <circle cx="78.0" cy="270.0" r="9.0" fill="url(#ball)"/><circle cx="75.3" cy="266.9" r="2.0" fill="#fff" opacity=".45"/>
  <circle cx="272.0" cy="296.0" r="12.0" fill="url(#ball)"/><circle cx="268.4" cy="291.9" r="2.6" fill="#fff" opacity=".45"/>
  <line x1="1104" y1="140" x2="1004" y2="86" stroke="#1a4166" stroke-width="1.8" opacity=".32"/>
  <line x1="1104" y1="140" x2="1032" y2="236" stroke="#1a4166" stroke-width="1.8" opacity=".32"/>
  <line x1="1104" y1="140" x2="1122" y2="266" stroke="#1a4166" stroke-width="1.8" opacity=".32"/>
  <line x1="1004" y1="86" x2="914" y2="176" stroke="#1a4166" stroke-width="1.8" opacity=".32"/>
  <line x1="1004" y1="86" x2="1032" y2="236" stroke="#1a4166" stroke-width="1.8" opacity=".32"/>
  <line x1="914" y1="176" x2="1032" y2="236" stroke="#1a4166" stroke-width="1.8" opacity=".32"/>
  <line x1="914" y1="176" x2="928" y2="290" stroke="#1a4166" stroke-width="1.8" opacity=".32"/>
  <line x1="1032" y1="236" x2="1122" y2="266" stroke="#1a4166" stroke-width="1.8" opacity=".32"/>
  <line x1="1032" y1="236" x2="928" y2="290" stroke="#1a4166" stroke-width="1.8" opacity=".32"/>
  <circle cx="1104.0" cy="140.0" r="9.0" fill="url(#ball)"/><circle cx="1101.3" cy="136.9" r="2.0" fill="#fff" opacity=".45"/>
  <circle cx="1004.0" cy="86.0" r="12.0" fill="url(#ball)"/><circle cx="1000.4" cy="81.9" r="2.6" fill="#fff" opacity=".45"/>
  <circle cx="914.0" cy="176.0" r="9.0" fill="url(#goldball)"/><circle cx="911.3" cy="172.9" r="2.0" fill="#fff" opacity=".45"/>
  <circle cx="1032.0" cy="236.0" r="12.0" fill="url(#ball)"/><circle cx="1028.4" cy="231.9" r="2.6" fill="#fff" opacity=".45"/>
  <circle cx="1122.0" cy="266.0" r="9.0" fill="url(#ball)"/><circle cx="1119.3" cy="262.9" r="2.0" fill="#fff" opacity=".45"/>
  <circle cx="928.0" cy="290.0" r="12.0" fill="url(#ball)"/><circle cx="924.4" cy="285.9" r="2.6" fill="#fff" opacity=".45"/>
  <line x1="126" y1="620" x2="232" y2="664" stroke="#1a4166" stroke-width="1.8" opacity=".32"/>
  <line x1="126" y1="620" x2="196" y2="548" stroke="#1a4166" stroke-width="1.8" opacity=".32"/>
  <line x1="232" y1="664" x2="310" y2="598" stroke="#1a4166" stroke-width="1.8" opacity=".32"/>
  <line x1="232" y1="664" x2="196" y2="548" stroke="#1a4166" stroke-width="1.8" opacity=".32"/>
  <line x1="310" y1="598" x2="196" y2="548" stroke="#1a4166" stroke-width="1.8" opacity=".32"/>
  <circle cx="126.0" cy="620.0" r="9.0" fill="url(#ball)"/><circle cx="123.3" cy="616.9" r="2.0" fill="#fff" opacity=".45"/>
  <circle cx="232.0" cy="664.0" r="12.0" fill="url(#ball)"/><circle cx="228.4" cy="659.9" r="2.6" fill="#fff" opacity=".45"/>
  <circle cx="310.0" cy="598.0" r="9.0" fill="url(#goldball)"/><circle cx="307.3" cy="594.9" r="2.0" fill="#fff" opacity=".45"/>
  <circle cx="196.0" cy="548.0" r="12.0" fill="url(#ball)"/><circle cx="192.4" cy="543.9" r="2.6" fill="#fff" opacity=".45"/>
  <line x1="1084" y1="636" x2="978" y2="590" stroke="#1a4166" stroke-width="1.8" opacity=".32"/>
  <line x1="1084" y1="636" x2="1014" y2="700" stroke="#1a4166" stroke-width="1.8" opacity=".32"/>
  <line x1="978" y1="590" x2="900" y2="660" stroke="#1a4166" stroke-width="1.8" opacity=".32"/>
  <line x1="978" y1="590" x2="1014" y2="700" stroke="#1a4166" stroke-width="1.8" opacity=".32"/>
  <line x1="900" y1="660" x2="1014" y2="700" stroke="#1a4166" stroke-width="1.8" opacity=".32"/>
  <circle cx="1084.0" cy="636.0" r="9.0" fill="url(#ball)"/><circle cx="1081.3" cy="632.9" r="2.0" fill="#fff" opacity=".45"/>
  <circle cx="978.0" cy="590.0" r="12.0" fill="url(#ball)"/><circle cx="974.4" cy="585.9" r="2.6" fill="#fff" opacity=".45"/>
  <circle cx="900.0" cy="660.0" r="9.0" fill="url(#goldball)"/><circle cx="897.3" cy="656.9" r="2.0" fill="#fff" opacity=".45"/>
  <circle cx="1014.0" cy="700.0" r="12.0" fill="url(#ball)"/><circle cx="1010.4" cy="695.9" r="2.6" fill="#fff" opacity=".45"/>
  <path d="M-40 452 C 210 288, 380 640, 620 452 S 1010 236, 1250 384" fill="none" stroke="url(#glass)" stroke-width="118" stroke-linecap="round" opacity=".85"/>
  <path d="M-40 540 C 230 400, 400 716, 640 540 S 1020 332, 1250 486" fill="none" stroke="#1a4166" stroke-width="44" stroke-linecap="round" opacity=".26"/>
  <path d="M-30 496 C 220 330, 392 688, 632 498 S 1020 276, 1240 426" fill="none" stroke="url(#rod)" stroke-width="6" opacity=".95"/>
  <circle cx="-30" cy="496" r="4.5" fill="url(#goldball)" opacity=".92"/>
  <circle cx="-0" cy="479" r="6.1" fill="url(#goldball)" opacity=".92"/>
  <circle cx="29" cy="466" r="7.5" fill="url(#goldball)" opacity=".92"/>
  <circle cx="57" cy="457" r="8.8" fill="url(#goldball)" opacity=".92"/>
  <circle cx="85" cy="452" r="9.9" fill="url(#goldball)" opacity=".92"/>
  <circle cx="112" cy="451" r="10.6" fill="url(#goldball)" opacity=".92"/>
  <circle cx="139" cy="452" r="11.0" fill="url(#goldball)" opacity=".92"/>
  <circle cx="165" cy="456" r="10.9" fill="url(#goldball)" opacity=".92"/>
  <circle cx="191" cy="462" r="10.5" fill="url(#goldball)" opacity=".92"/>
  <circle cx="216" cy="470" r="9.8" fill="url(#goldball)" opacity=".92"/>
  <circle cx="242" cy="480" r="8.7" fill="url(#goldball)" opacity=".92"/>
  <circle cx="267" cy="490" r="7.4" fill="url(#goldball)" opacity=".92"/>
  <circle cx="292" cy="501" r="5.9" fill="url(#goldball)" opacity=".92"/>
  <circle cx="317" cy="511" r="4.7" fill="url(#goldball)" opacity=".92"/>
  <circle cx="342" cy="522" r="6.3" fill="url(#goldball)" opacity=".92"/>
  <circle cx="367" cy="532" r="7.7" fill="url(#goldball)" opacity=".92"/>
  <circle cx="392" cy="540" r="9.0" fill="url(#goldball)" opacity=".92"/>
  <circle cx="418" cy="547" r="10.0" fill="url(#goldball)" opacity=".92"/>
  <circle cx="443" cy="552" r="10.7" fill="url(#goldball)" opacity=".92"/>
  <circle cx="469" cy="555" r="11.0" fill="url(#goldball)" opacity=".92"/>
  <circle cx="495" cy="555" r="10.9" fill="url(#goldball)" opacity=".92"/>
  <circle cx="521" cy="552" r="10.5" fill="url(#goldball)" opacity=".92"/>
  <circle cx="548" cy="545" r="9.7" fill="url(#goldball)" opacity=".92"/>
  <circle cx="576" cy="534" r="8.5" fill="url(#goldball)" opacity=".92"/>
  <circle cx="604" cy="518" r="7.2" fill="url(#goldball)" opacity=".92"/>
  <circle cx="632" cy="498" r="5.7" fill="url(#goldball)" opacity=".92"/>
  <circle cx="632" cy="498" r="5.7" fill="url(#goldball)" opacity=".92"/>
  <circle cx="660" cy="476" r="4.9" fill="url(#goldball)" opacity=".92"/>
  <circle cx="688" cy="455" r="6.5" fill="url(#goldball)" opacity=".92"/>
  <circle cx="715" cy="436" r="7.9" fill="url(#goldball)" opacity=".92"/>
  <circle cx="741" cy="419" r="9.1" fill="url(#goldball)" opacity=".92"/>
  <circle cx="766" cy="403" r="10.1" fill="url(#goldball)" opacity=".92"/>
  <circle cx="791" cy="389" r="10.7" fill="url(#goldball)" opacity=".92"/>
  <circle cx="816" cy="376" r="11.0" fill="url(#goldball)" opacity=".92"/>
  <circle cx="840" cy="365" r="10.9" fill="url(#goldball)" opacity=".92"/>
  <circle cx="863" cy="355" r="10.4" fill="url(#goldball)" opacity=".92"/>
  <circle cx="886" cy="347" r="9.5" fill="url(#goldball)" opacity=".92"/>
  <circle cx="909" cy="341" r="8.4" fill="url(#goldball)" opacity=".92"/>
  <circle cx="932" cy="336" r="7.0" fill="url(#goldball)" opacity=".92"/>
  <circle cx="955" cy="333" r="5.5" fill="url(#goldball)" opacity=".92"/>
  <circle cx="977" cy="332" r="5.1" fill="url(#goldball)" opacity=".92"/>
  <circle cx="1000" cy="332" r="6.6" fill="url(#goldball)" opacity=".92"/>
  <circle cx="1023" cy="334" r="8.1" fill="url(#goldball)" opacity=".92"/>
  <circle cx="1046" cy="337" r="9.3" fill="url(#goldball)" opacity=".92"/>
  <circle cx="1069" cy="342" r="10.2" fill="url(#goldball)" opacity=".92"/>
  <circle cx="1092" cy="349" r="10.8" fill="url(#goldball)" opacity=".92"/>
  <circle cx="1115" cy="358" r="11.0" fill="url(#goldball)" opacity=".92"/>
  <circle cx="1139" cy="368" r="10.8" fill="url(#goldball)" opacity=".92"/>
  <circle cx="1164" cy="380" r="10.3" fill="url(#goldball)" opacity=".92"/>
  <circle cx="1188" cy="393" r="9.4" fill="url(#goldball)" opacity=".92"/>
  <circle cx="1214" cy="409" r="8.2" fill="url(#goldball)" opacity=".92"/>
  <circle cx="1240" cy="426" r="6.8" fill="url(#goldball)" opacity=".92"/>
</svg>
